

// 1. Pedagogical Structure

// We mean by 'Pedagogical' the hierarchy of groupings that students are
// divided in.
//
// The structure is pretty straightforward. A specialty has academic levels
// that each contain sections which are in turn also divided in groups.
//
// Each group must have a teaching assistant.


Table students {
  id integer [pk, increment]
  group_id integer [not null]
  surname text [not null]
  name text
  matricule text
  email text
}


Table groups {
  id integer [pk, increment]
  number integer [not null]
  teaching_assistant_id integer [not null]
  section_id integer [not null]
}


Table teaching_assistants {
  id integer [pk, increment]
  surname text [not null]
  name text [not null]
  email text [not null]
  phone_number text
}


Table sections {
  id integer [pk, increment]
  academic_level_id integer [not null]
  identifier text [not null]
}


Table academic_levels {
  id integer [pk, increment]
  level integer [not null]
  specialty_id integer [not null]
}


Table specialties {
  id integer [pk, increment]
  // e.g. "Intelligence Artificiel" or "Science et Technologies"
  name text [not null]
  // an abreviation of the name e.g. "AI" or "GL" for "Genie Logiciel"
  acronyme text [not null]
  // wether it's a Master's specialty or a Licence one
  cycle text [not null]
}


Ref: students.group_id > groups.id

Ref: groups.section_id > sections.id

Ref: groups.teaching_assistant_id > teaching_assistants.id

Ref: sections.academic_level_id > academic_levels.id

Ref: academic_levels.specialty_id > specialties.id


// 2. Academic Structure

// The way that semesters and course enrollments are structured


Table courses {
  id integer [pk, increment]
  name text [not null]
}

// Each student is enrolled in many courses at the same time which belong to a
// semester. It would seem at first that we can just enroll student in the
// courses that belong in the current semester but there are also students who
// are retaking courses which do not belong in the semester they are currently
// studying in. So the enrollment can't depend solely on the current semester.
Table enrollments {
  id integer [pk, increment]
  student_id integer [not null]
  course_id integer [not null]
}


// A specialty's curriculum is defined by the semesters that compose the
// specialty.
Table semesters {
  id integer [pk, increment]
  academic_level_id integer [not null]
  number integer [not null]
}


// A given course isn't specific to one semester either, so we'll need a
// Many-to-Many table for that too.
Table semester_course_many_to_many {
  id integer [pk, increment]
  semester_id integer [not null]
  course_id integer [not null]
}


Ref: enrollments.course_id > courses.id

Ref: enrollments.student_id > students.id

Ref: semester_course_many_to_many.course_id > courses.id

Ref: semester_course_many_to_many.semester_id > semesters.id

Ref: semesters.academic_level_id > academic_levels.id
